<svg xmlns="http://www.w3.org/2000/svg" width="342.736" height="235.252" viewBox="0 0 342.736 235.252">
  <g id="RE_logo_dark_-_square" data-name="RE logo dark - square" transform="translate(-795.896 -244.156)">
    <path id="Path_226" data-name="Path 226" d="M243.987,92.144,236.93,82.063a9.809,9.809,0,0,0,6.531-9.687c0-6.794-5-10.914-13.062-10.914H217.776V92.144h5.7V83.2H230.4a10.682,10.682,0,0,0,1.183-.044l6.268,8.985Zm-6.268-19.768c0,3.857-2.586,6.136-7.583,6.136h-6.662V66.284h6.662C235.133,66.284,237.719,68.519,237.719,72.376Zm33.594,8.2c0-7.32-5-12.1-11.834-12.1-6.969,0-12.1,5-12.1,11.966s5.084,12.01,12.93,12.01c4.032,0,7.32-1.315,9.424-3.813L266.8,85.262a8.388,8.388,0,0,1-6.355,2.542c-4.076,0-6.925-2.192-7.583-5.61h18.365C271.27,81.668,271.313,81.011,271.313,80.572Zm-11.834-7.714a6.372,6.372,0,0,1,6.619,5.7H252.817A6.469,6.469,0,0,1,259.479,72.858Zm24.329,19.592c6.575,0,10.607-2.849,10.607-7.232,0-9.161-14.464-4.953-14.464-9.687,0-1.534,1.578-2.63,4.909-2.63a12.812,12.812,0,0,1,6.706,1.753l2.1-4.164a18.627,18.627,0,0,0-8.766-2.016c-6.312,0-10.3,2.893-10.3,7.32,0,9.336,14.464,5.128,14.464,9.6,0,1.622-1.446,2.586-4.909,2.586a15.748,15.748,0,0,1-8.153-2.323l-2.1,4.164C276.006,91.311,279.907,92.451,283.808,92.451Zm25.844,0c7.276,0,12.492-5,12.492-12.01s-5.216-11.966-12.492-11.966c-7.188,0-12.448,4.953-12.448,11.966S302.464,92.451,309.653,92.451Zm0-4.69c-3.945,0-6.925-2.849-6.925-7.32s2.981-7.32,6.925-7.32c3.989,0,6.969,2.849,6.969,7.32S313.641,87.761,309.653,87.761Zm17.731,4.383h5.479V59.621h-5.479ZM356.71,68.738l-7.5,17.357-7.276-17.357h-5.7l10.037,23.406h5.654L361.97,68.738Zm30.045,11.834c0-7.32-5-12.1-11.834-12.1-6.969,0-12.1,5-12.1,11.966s5.084,12.01,12.93,12.01c4.032,0,7.32-1.315,9.424-3.813l-2.937-3.375a8.388,8.388,0,0,1-6.355,2.542c-4.076,0-6.925-2.192-7.583-5.61h18.365C386.711,81.668,386.755,81.011,386.755,80.572Zm-11.834-7.714a6.372,6.372,0,0,1,6.618,5.7H368.259A6.469,6.469,0,0,1,374.921,72.858Zm21.743,16.48v-11.4h15.867V75.181H396.664V64.267h17.8V61.462H393.421V92.144h21.7V89.339ZM433.83,68.913c-3.989,0-7.1,1.622-8.766,4.427V69.089h-2.98V92.144H425.2v-12.1c0-5.26,3.112-8.328,8.065-8.328,4.383,0,6.925,2.5,6.925,7.364V92.144H443.3V78.775C443.3,72.157,439.44,68.913,433.83,68.913Zm36.368.175v4.427a10.4,10.4,0,0,0-9.117-4.6c-6.575,0-11.571,4.515-11.571,11.133s5,11.221,11.571,11.221a10.375,10.375,0,0,0,8.985-4.471v2.937c0,5.7-2.674,8.372-8.5,8.372a13.722,13.722,0,0,1-9.073-3.156l-1.578,2.367c2.411,2.279,6.531,3.55,10.739,3.55,7.627,0,11.528-3.594,11.528-11.527V69.089Zm-8.81,19.417c-5.084,0-8.722-3.463-8.722-8.459s3.638-8.416,8.722-8.416,8.766,3.419,8.766,8.416S466.472,88.506,461.388,88.506Zm22.07-24.458a2.237,2.237,0,0,0,2.279-2.279,2.21,2.21,0,0,0-2.279-2.148,2.214,2.214,0,1,0,0,4.427Zm-1.578,28.1h3.112V69.089H481.88ZM505.4,68.913c-3.989,0-7.1,1.622-8.766,4.427V69.089h-2.981V92.144h3.112v-12.1c0-5.26,3.112-8.328,8.065-8.328,4.383,0,6.925,2.5,6.925,7.364V92.144h3.112V78.775C514.866,72.157,511.009,68.913,505.4,68.913Zm38.12,11.7c0-6.925-4.69-11.7-11.177-11.7s-11.265,4.865-11.265,11.7,4.909,11.747,12.1,11.747a11.349,11.349,0,0,0,8.9-3.769l-1.753-2.016a9.088,9.088,0,0,1-7.057,3.024c-5.041,0-8.722-3.2-9.073-8.021h19.286C543.475,81.23,543.519,80.879,543.519,80.616Zm-11.177-9.029a8.019,8.019,0,0,1,8.2,7.67H524.189A8.008,8.008,0,0,1,532.342,71.587Z" transform="translate(579.279 347.591)" fill="#105e96"/>
    <path id="Path_227" data-name="Path 227" d="M218.143,140.582V133.9h9.3v-1.619h-9.3v-6.4h10.432V124.24H216.242v17.986h12.719v-1.644Zm28.442-16.341v8.017H235.331V124.24h-1.9v17.986h1.9v-8.3h11.254v8.3h1.876V124.24Zm22.109,17.986-4.394-6.167a5.575,5.575,0,0,0,4.111-5.653c0-3.854-2.775-6.167-7.349-6.167h-6.732v17.986h1.9v-5.7h4.831a12.8,12.8,0,0,0,1.439-.077l4.111,5.781Zm-7.683-7.323h-4.779v-9.019h4.779c3.6,0,5.5,1.644,5.5,4.522C266.51,133.233,264.609,134.9,261.012,134.9Zm18.612,7.323h1.9V124.24h-1.9Zm14.254-13.618a5.68,5.68,0,0,0-5.139,2.6v-2.492h-1.747v13.515h1.824v-7.092c0-3.083,1.824-4.882,4.728-4.882,2.569,0,4.06,1.465,4.06,4.317v7.657h1.824v-7.837C299.428,130.509,297.167,128.608,293.878,128.608Zm16.978,11.485a3.019,3.019,0,0,1-2,.694,2.164,2.164,0,0,1-2.338-2.467v-8.068h4.111v-1.542h-4.111v-2.955h-1.824v2.955h-2.415v1.542h2.415v8.171a3.58,3.58,0,0,0,3.957,3.931,4.344,4.344,0,0,0,2.852-.951Zm15.28-4.625c0-4.06-2.749-6.86-6.552-6.86a6.509,6.509,0,0,0-6.6,6.86,7.145,7.145,0,0,0,12.307,4.676l-1.028-1.182a5.327,5.327,0,0,1-4.137,1.773,5,5,0,0,1-5.319-4.7H326.11C326.11,135.828,326.135,135.623,326.135,135.468Zm-6.552-5.293a4.7,4.7,0,0,1,4.8,4.5H314.8A4.694,4.694,0,0,1,319.584,130.175Zm21.031-1.465v2.6a6.1,6.1,0,0,0-5.344-2.7,6.556,6.556,0,1,0,0,13.1,6.082,6.082,0,0,0,5.267-2.621v1.722c0,3.34-1.567,4.908-4.985,4.908a8.044,8.044,0,0,1-5.319-1.85l-.925,1.387a9.425,9.425,0,0,0,6.3,2.081c4.471,0,6.757-2.107,6.757-6.758V128.711Zm-5.164,11.382a4.95,4.95,0,1,1,5.139-4.959A4.831,4.831,0,0,1,335.45,140.093Zm13.76-8.736v-2.646h-1.747v13.515h1.824V135.34c0-3.186,1.721-4.985,4.548-4.985.128,0,.283.026.437.026v-1.773C351.78,128.608,350.058,129.559,349.21,131.357Zm13.068-2.749a8.581,8.581,0,0,0-5.5,1.824l.822,1.362a6.885,6.885,0,0,1,4.5-1.593c2.518,0,3.828,1.259,3.828,3.571v.822h-4.291c-3.88,0-5.216,1.747-5.216,3.828,0,2.338,1.876,3.931,4.933,3.931A5.075,5.075,0,0,0,366,140.119v2.107h1.747V133.85C367.751,130.355,365.772,128.608,362.278,128.608Zm-.642,12.307c-2.158,0-3.417-.976-3.417-2.544,0-1.387.848-2.415,3.469-2.415h4.24v2.21A4.324,4.324,0,0,1,361.636,140.916Zm17.545-.822a3.019,3.019,0,0,1-2,.694,2.164,2.164,0,0,1-2.338-2.467v-8.068h4.111v-1.542h-4.111v-2.955h-1.824v2.955H370.6v1.542h2.415v8.171a3.58,3.58,0,0,0,3.957,3.931,4.344,4.344,0,0,0,2.852-.951Zm4.888-14.337a1.311,1.311,0,0,0,1.336-1.336,1.3,1.3,0,0,0-1.336-1.259,1.3,1.3,0,1,0,0,2.6Zm-.925,16.47h1.824V128.711h-1.824Zm12.425.129a6.873,6.873,0,1,0-6.886-6.886A6.648,6.648,0,0,0,395.568,142.354Zm0-1.619a5.274,5.274,0,1,1,5.01-5.267A4.948,4.948,0,0,1,395.568,140.736Zm17.47-12.128a5.68,5.68,0,0,0-5.139,2.6v-2.492h-1.747v13.515h1.824v-7.092c0-3.083,1.824-4.882,4.728-4.882,2.569,0,4.06,1.465,4.06,4.317v7.657h1.824v-7.837C418.589,130.509,416.328,128.608,413.039,128.608Zm14.126,13.746c3.52,0,5.576-1.516,5.576-3.854,0-5.19-8.762-2.441-8.762-6.089,0-1.285,1.079-2.235,3.52-2.235a6.927,6.927,0,0,1,3.983,1.156l.8-1.465a9.159,9.159,0,0,0-4.779-1.259c-3.443,0-5.344,1.644-5.344,3.854,0,5.344,8.762,2.569,8.762,6.09,0,1.336-1.053,2.21-3.623,2.21a8.163,8.163,0,0,1-4.8-1.516l-.822,1.439A9.029,9.029,0,0,0,427.165,142.354Zm21.017.026c4.6,0,6.706-2.261,6.706-4.908,0-6.552-11.074-3.571-11.074-8.5,0-1.8,1.465-3.263,4.753-3.263a9.26,9.26,0,0,1,4.933,1.49l.642-1.516a10.152,10.152,0,0,0-5.576-1.593c-4.574,0-6.629,2.287-6.629,4.933,0,6.655,11.074,3.623,11.074,8.556,0,1.773-1.465,3.186-4.831,3.186a8.832,8.832,0,0,1-5.935-2.184l-.745,1.465A9.753,9.753,0,0,0,448.182,142.38Zm15.988-.026a6.873,6.873,0,1,0-6.886-6.886A6.648,6.648,0,0,0,464.169,142.354Zm0-1.619a5.274,5.274,0,1,1,5.01-5.267A4.948,4.948,0,0,1,464.169,140.736Zm10.585,1.49h1.824V123.161h-1.824Zm17.255-13.515V135.8c0,3.083-1.773,4.908-4.6,4.908-2.569,0-4.06-1.465-4.06-4.342v-7.657h-1.824v7.837c0,3.88,2.261,5.807,5.7,5.807a5.376,5.376,0,0,0,4.856-2.6v2.467h1.747V128.711Zm13.409,11.382a3.019,3.019,0,0,1-2,.694,2.164,2.164,0,0,1-2.338-2.467v-8.068h4.111v-1.542h-4.111v-2.955h-1.824v2.955h-2.415v1.542h2.415v8.171a3.58,3.58,0,0,0,3.957,3.931,4.344,4.344,0,0,0,2.852-.951Zm4.888-14.337a1.311,1.311,0,0,0,1.336-1.336,1.3,1.3,0,0,0-1.336-1.259,1.3,1.3,0,1,0,0,2.6Zm-.925,16.47h1.824V128.711h-1.824Zm12.425.129a6.873,6.873,0,1,0-6.886-6.886A6.648,6.648,0,0,0,521.806,142.354Zm0-1.619a5.274,5.274,0,1,1,5.01-5.267A4.948,4.948,0,0,1,521.806,140.736Zm17.47-12.128a5.68,5.68,0,0,0-5.139,2.6v-2.492H532.39v13.515h1.824v-7.092c0-3.083,1.824-4.882,4.728-4.882,2.569,0,4.06,1.465,4.06,4.317v7.657h1.824v-7.837C544.826,130.509,542.565,128.608,539.276,128.608ZM553.4,142.354c3.52,0,5.576-1.516,5.576-3.854,0-5.19-8.762-2.441-8.762-6.089,0-1.285,1.079-2.235,3.52-2.235a6.927,6.927,0,0,1,3.983,1.156l.8-1.465a9.158,9.158,0,0,0-4.779-1.259c-3.443,0-5.344,1.644-5.344,3.854,0,5.344,8.762,2.569,8.762,6.09,0,1.336-1.053,2.21-3.623,2.21a8.163,8.163,0,0,1-4.8-1.516l-.822,1.439A9.029,9.029,0,0,0,553.4,142.354Z" transform="translate(579.654 332.069)" fill="#3a3a3a"/>
    <path id="Path_228" data-name="Path 228" d="M79.5,19.777A32.714,32.714,0,0,1,63.328,36.4a33.745,33.745,0,0,1-22.9,2.267,32.3,32.3,0,0,0-22.974,2.645A32.742,32.742,0,0,0,0,68.973v2.645a32.237,32.237,0,0,1,48.29-23.88A32.009,32.009,0,0,1,62.346,64.363a35.173,35.173,0,0,0,5.668,9.975,32.617,32.617,0,0,1,9.673-7.179l1.889-.907a34.673,34.673,0,0,1,22.6-2.267,32.429,32.429,0,0,0,35.594-47.156A32.379,32.379,0,0,0,79.5,19.777Z" transform="translate(861 244.156)" fill="#105e96"/>
    <path id="Path_229" data-name="Path 229" d="M48.39,61.764A32.4,32.4,0,0,0,3.274,75.14,30.068,30.068,0,0,0,.1,85.644,32.4,32.4,0,0,0,61.766,97.887a35.783,35.783,0,0,1,6.424-9.522,35.172,35.172,0,0,1-5.668-9.975A32.862,32.862,0,0,0,48.39,61.764Z" transform="translate(860.976 230.13)" fill="#105e96"/>
    <path id="Path_230" data-name="Path 230" d="M99.13,31.372a32.607,32.607,0,0,0,6.952,22.6,32.632,32.632,0,0,1,6.726,21.764,32.9,32.9,0,0,1-8.917,21.613,32.465,32.465,0,1,0,49.726,3.476,34.755,34.755,0,0,1-6.877-21.764l.076-2.116a34.661,34.661,0,0,1,8.993-21.613A33.293,33.293,0,0,0,163.97,35a32.472,32.472,0,0,0-64.84-3.627Z" transform="translate(837.818 243.896)" fill="#1dc0f8" opacity="0.5"/>
    <path id="Path_231" data-name="Path 231" d="M60.741,128.535a51.668,51.668,0,0,1-5.441,1.889,33.822,33.822,0,0,1,30.455,23.729,32.381,32.381,0,1,0,27.886-41.186A34.853,34.853,0,0,1,91.5,108.055l-1.738-1.134a26.139,26.139,0,0,1-4.534-3.552,29.528,29.528,0,0,0-5.366,7.406A38.055,38.055,0,0,1,60.741,128.535Z" transform="translate(847.49 218.904)" fill="#105e96"/>
  </g>
</svg>
