<svg xmlns="http://www.w3.org/2000/svg" width="375" viewBox="0 0 375 375" height="375" version="1.0"><defs><clipPath id="a"><path d="M 161.179688 41.195312 L 255.253906 41.195312 L 255.253906 137.335938 L 161.179688 137.335938 Z M 161.179688 41.195312"/></clipPath><clipPath id="b"><path d="M 161.179688 37.5 L 216.578125 37.5 L 216.578125 81.789062 L 161.179688 81.789062 Z M 161.179688 37.5"/></clipPath><clipPath id="c"><path d="M 119.511719 85 L 214 85 L 214 182 L 119.511719 182 Z M 119.511719 85"/></clipPath><clipPath id="d"><path d="M 158 140 L 214 140 L 214 185.097656 L 158 185.097656 Z M 158 140"/></clipPath></defs><g fill="#404040"><g><g><path d="M 20 0 L 14.890625 -7.375 L 9.265625 -7.375 L 9.265625 0 L 3.140625 0 L 3.140625 -26.453125 L 14.59375 -26.453125 C 16.9375 -26.453125 18.96875 -26.0625 20.6875 -25.28125 C 22.414062 -24.5 23.742188 -23.390625 24.671875 -21.953125 C 25.609375 -20.523438 26.078125 -18.828125 26.078125 -16.859375 C 26.078125 -14.890625 25.601562 -13.191406 24.65625 -11.765625 C 23.71875 -10.347656 22.378906 -9.257812 20.640625 -8.5 L 26.578125 0 Z M 19.875 -16.859375 C 19.875 -18.347656 19.394531 -19.488281 18.4375 -20.28125 C 17.488281 -21.070312 16.09375 -21.46875 14.25 -21.46875 L 9.265625 -21.46875 L 9.265625 -12.25 L 14.25 -12.25 C 16.09375 -12.25 17.488281 -12.648438 18.4375 -13.453125 C 19.394531 -14.265625 19.875 -15.398438 19.875 -16.859375 Z M 19.875 -16.859375" transform="translate(8.044 234.88)"/></g></g></g><g fill="#404040"><g><g><path d="M 23.625 -4.90625 L 23.625 0 L 3.140625 0 L 3.140625 -26.453125 L 23.125 -26.453125 L 23.125 -21.546875 L 9.21875 -21.546875 L 9.21875 -15.796875 L 21.5 -15.796875 L 21.5 -11.03125 L 9.21875 -11.03125 L 9.21875 -4.90625 Z M 23.625 -4.90625" transform="translate(36.543 234.88)"/></g></g></g><g fill="#404040"><g><g><path d="M 11.828125 0.453125 C 9.734375 0.453125 7.707031 0.171875 5.75 -0.390625 C 3.800781 -0.960938 2.238281 -1.703125 1.0625 -2.609375 L 3.140625 -7.21875 C 4.273438 -6.382812 5.625 -5.710938 7.1875 -5.203125 C 8.75 -4.703125 10.3125 -4.453125 11.875 -4.453125 C 13.601562 -4.453125 14.882812 -4.710938 15.71875 -5.234375 C 16.550781 -5.753906 16.96875 -6.441406 16.96875 -7.296875 C 16.96875 -7.921875 16.722656 -8.441406 16.234375 -8.859375 C 15.742188 -9.273438 15.113281 -9.609375 14.34375 -9.859375 C 13.570312 -10.117188 12.53125 -10.398438 11.21875 -10.703125 C 9.207031 -11.179688 7.554688 -11.65625 6.265625 -12.125 C 4.984375 -12.601562 3.882812 -13.375 2.96875 -14.4375 C 2.050781 -15.5 1.59375 -16.910156 1.59375 -18.671875 C 1.59375 -20.210938 2.003906 -21.601562 2.828125 -22.84375 C 3.660156 -24.09375 4.914062 -25.082031 6.59375 -25.8125 C 8.269531 -26.539062 10.316406 -26.90625 12.734375 -26.90625 C 14.421875 -26.90625 16.070312 -26.703125 17.6875 -26.296875 C 19.300781 -25.898438 20.710938 -25.320312 21.921875 -24.5625 L 20.03125 -19.921875 C 17.582031 -21.304688 15.140625 -22 12.703125 -22 C 10.984375 -22 9.710938 -21.71875 8.890625 -21.15625 C 8.078125 -20.601562 7.671875 -19.875 7.671875 -18.96875 C 7.671875 -18.0625 8.140625 -17.390625 9.078125 -16.953125 C 10.023438 -16.515625 11.472656 -16.078125 13.421875 -15.640625 C 15.429688 -15.171875 17.078125 -14.695312 18.359375 -14.21875 C 19.648438 -13.738281 20.753906 -12.976562 21.671875 -11.9375 C 22.597656 -10.90625 23.0625 -9.507812 23.0625 -7.75 C 23.0625 -6.238281 22.640625 -4.859375 21.796875 -3.609375 C 20.953125 -2.359375 19.679688 -1.367188 17.984375 -0.640625 C 16.296875 0.0859375 14.242188 0.453125 11.828125 0.453125 Z M 11.828125 0.453125" transform="translate(62.623 234.88)"/></g></g></g><g fill="#404040"><g><g><path d="M 15.953125 0.453125 C 13.203125 0.453125 10.722656 -0.132812 8.515625 -1.3125 C 6.316406 -2.5 4.59375 -4.128906 3.34375 -6.203125 C 2.09375 -8.285156 1.46875 -10.628906 1.46875 -13.234375 C 1.46875 -15.828125 2.09375 -18.160156 3.34375 -20.234375 C 4.59375 -22.316406 6.316406 -23.945312 8.515625 -25.125 C 10.722656 -26.3125 13.203125 -26.90625 15.953125 -26.90625 C 18.691406 -26.90625 21.15625 -26.3125 23.34375 -25.125 C 25.539062 -23.945312 27.269531 -22.316406 28.53125 -20.234375 C 29.789062 -18.160156 30.421875 -15.828125 30.421875 -13.234375 C 30.421875 -10.628906 29.789062 -8.285156 28.53125 -6.203125 C 27.269531 -4.128906 25.539062 -2.5 23.34375 -1.3125 C 21.15625 -0.132812 18.691406 0.453125 15.953125 0.453125 Z M 15.953125 -4.765625 C 17.515625 -4.765625 18.925781 -5.125 20.1875 -5.84375 C 21.445312 -6.5625 22.4375 -7.5625 23.15625 -8.84375 C 23.875 -10.125 24.234375 -11.585938 24.234375 -13.234375 C 24.234375 -14.867188 23.875 -16.328125 23.15625 -17.609375 C 22.4375 -18.898438 21.445312 -19.90625 20.1875 -20.625 C 18.925781 -21.34375 17.515625 -21.703125 15.953125 -21.703125 C 14.390625 -21.703125 12.976562 -21.34375 11.71875 -20.625 C 10.457031 -19.90625 9.46875 -18.898438 8.75 -17.609375 C 8.03125 -16.328125 7.671875 -14.867188 7.671875 -13.234375 C 7.671875 -11.585938 8.03125 -10.125 8.75 -8.84375 C 9.46875 -7.5625 10.457031 -6.5625 11.71875 -5.84375 C 12.976562 -5.125 14.390625 -4.765625 15.953125 -4.765625 Z M 15.953125 -4.765625" transform="translate(87.457 234.88)"/></g></g></g><g fill="#404040"><g><g><path d="M 3.140625 -26.453125 L 9.265625 -26.453125 L 9.265625 -4.984375 L 22.53125 -4.984375 L 22.53125 0 L 3.140625 0 Z M 3.140625 -26.453125" transform="translate(120.076 234.88)"/></g></g></g><g fill="#404040"><g><g><path d="M 28.578125 -26.453125 L 17.125 0 L 11.078125 0 L -0.34375 -26.453125 L 6.28125 -26.453125 L 14.328125 -7.5625 L 22.484375 -26.453125 Z M 28.578125 -26.453125" transform="translate(143.624 234.88)"/></g></g></g><g fill="#404040"><g><g><path d="M 23.625 -4.90625 L 23.625 0 L 3.140625 0 L 3.140625 -26.453125 L 23.125 -26.453125 L 23.125 -21.546875 L 9.21875 -21.546875 L 9.21875 -15.796875 L 21.5 -15.796875 L 21.5 -11.03125 L 9.21875 -11.03125 L 9.21875 -4.90625 Z M 23.625 -4.90625" transform="translate(172.54 234.88)"/></g></g></g><g fill="#404040"><g><g><path d="M 23.625 -4.90625 L 23.625 0 L 3.140625 0 L 3.140625 -26.453125 L 23.125 -26.453125 L 23.125 -21.546875 L 9.21875 -21.546875 L 9.21875 -15.796875 L 21.5 -15.796875 L 21.5 -11.03125 L 9.21875 -11.03125 L 9.21875 -4.90625 Z M 23.625 -4.90625" transform="translate(210.034 234.88)"/></g></g></g><g fill="#404040"><g><g><path d="M 27.40625 -26.453125 L 27.40625 0 L 22.375 0 L 9.1875 -16.0625 L 9.1875 0 L 3.140625 0 L 3.140625 -26.453125 L 8.203125 -26.453125 L 21.359375 -10.390625 L 21.359375 -26.453125 Z M 27.40625 -26.453125" transform="translate(236.115 234.88)"/></g></g></g><g fill="#404040"><g><g><path d="M 21.015625 -13.640625 L 26.609375 -13.640625 L 26.609375 -2.90625 C 25.171875 -1.820312 23.503906 -0.988281 21.609375 -0.40625 C 19.722656 0.164062 17.820312 0.453125 15.90625 0.453125 C 13.164062 0.453125 10.695312 -0.128906 8.5 -1.296875 C 6.3125 -2.472656 4.59375 -4.097656 3.34375 -6.171875 C 2.09375 -8.253906 1.46875 -10.609375 1.46875 -13.234375 C 1.46875 -15.847656 2.09375 -18.191406 3.34375 -20.265625 C 4.59375 -22.347656 6.328125 -23.972656 8.546875 -25.140625 C 10.765625 -26.316406 13.257812 -26.90625 16.03125 -26.90625 C 18.34375 -26.90625 20.441406 -26.515625 22.328125 -25.734375 C 24.222656 -24.953125 25.8125 -23.820312 27.09375 -22.34375 L 23.171875 -18.703125 C 21.273438 -20.703125 18.992188 -21.703125 16.328125 -21.703125 C 14.640625 -21.703125 13.140625 -21.347656 11.828125 -20.640625 C 10.515625 -19.929688 9.492188 -18.929688 8.765625 -17.640625 C 8.035156 -16.359375 7.671875 -14.890625 7.671875 -13.234375 C 7.671875 -11.585938 8.035156 -10.125 8.765625 -8.84375 C 9.492188 -7.5625 10.507812 -6.5625 11.8125 -5.84375 C 13.113281 -5.125 14.59375 -4.765625 16.25 -4.765625 C 18.019531 -4.765625 19.609375 -5.140625 21.015625 -5.890625 Z M 21.015625 -13.640625" transform="translate(267.374 234.88)"/></g></g></g><g fill="#404040"><g><g><path d="M 3.140625 -26.453125 L 9.265625 -26.453125 L 9.265625 0 L 3.140625 0 Z M 3.140625 -26.453125" transform="translate(297.234 234.88)"/></g></g></g><g fill="#404040"><g><g><path d="M 27.40625 -26.453125 L 27.40625 0 L 22.375 0 L 9.1875 -16.0625 L 9.1875 0 L 3.140625 0 L 3.140625 -26.453125 L 8.203125 -26.453125 L 21.359375 -10.390625 L 21.359375 -26.453125 Z M 27.40625 -26.453125" transform="translate(310.35 234.88)"/></g></g></g><g fill="#404040"><g><g><path d="M 23.625 -4.90625 L 23.625 0 L 3.140625 0 L 3.140625 -26.453125 L 23.125 -26.453125 L 23.125 -21.546875 L 9.21875 -21.546875 L 9.21875 -15.796875 L 21.5 -15.796875 L 21.5 -11.03125 L 9.21875 -11.03125 L 9.21875 -4.90625 Z M 23.625 -4.90625" transform="translate(341.608 234.88)"/></g></g></g><g fill="#404040"><g><g><path d="M 9.75 -1.71875 L 9.75 0 L 1.484375 0 L 1.484375 -11.03125 L 9.53125 -11.03125 L 9.53125 -9.3125 L 3.53125 -9.3125 L 3.53125 -6.4375 L 8.84375 -6.4375 L 8.84375 -4.75 L 3.53125 -4.75 L 3.53125 -1.71875 Z M 9.75 -1.71875" transform="translate(68.598 259.99)"/></g></g></g><g fill="#404040"><g><g><path d="M 11.28125 -11.03125 L 11.28125 0 L 9.234375 0 L 9.234375 -4.71875 L 3.53125 -4.71875 L 3.53125 0 L 1.484375 0 L 1.484375 -11.03125 L 3.53125 -11.03125 L 3.53125 -6.46875 L 9.234375 -6.46875 L 9.234375 -11.03125 Z M 11.28125 -11.03125" transform="translate(84.516 259.99)"/></g></g></g><g fill="#404040"><g><g><path d="M 8.6875 0 L 6.4375 -3.234375 C 6.34375 -3.222656 6.203125 -3.21875 6.015625 -3.21875 L 3.53125 -3.21875 L 3.53125 0 L 1.484375 0 L 1.484375 -11.03125 L 6.015625 -11.03125 C 6.972656 -11.03125 7.804688 -10.867188 8.515625 -10.546875 C 9.222656 -10.234375 9.765625 -9.78125 10.140625 -9.1875 C 10.515625 -8.601562 10.703125 -7.910156 10.703125 -7.109375 C 10.703125 -6.273438 10.5 -5.554688 10.09375 -4.953125 C 9.695312 -4.359375 9.117188 -3.914062 8.359375 -3.625 L 10.90625 0 Z M 8.640625 -7.109375 C 8.640625 -7.804688 8.410156 -8.34375 7.953125 -8.71875 C 7.492188 -9.101562 6.816406 -9.296875 5.921875 -9.296875 L 3.53125 -9.296875 L 3.53125 -4.890625 L 5.921875 -4.890625 C 6.816406 -4.890625 7.492188 -5.082031 7.953125 -5.46875 C 8.410156 -5.851562 8.640625 -6.398438 8.640625 -7.109375 Z M 8.640625 -7.109375" transform="translate(102.638 259.99)"/></g></g></g><g fill="#404040"><g><g><path d="M 1.484375 -11.03125 L 3.53125 -11.03125 L 3.53125 0 L 1.484375 0 Z M 1.484375 -11.03125" transform="translate(129.232 259.99)"/></g></g></g><g fill="#404040"><g><g><path d="M 11.28125 -11.03125 L 11.28125 0 L 9.59375 0 L 3.515625 -7.46875 L 3.515625 0 L 1.484375 0 L 1.484375 -11.03125 L 3.171875 -11.03125 L 9.25 -3.5625 L 9.25 -11.03125 Z M 11.28125 -11.03125" transform="translate(139.624 259.99)"/></g></g></g><g fill="#404040"><g><g><path d="M 3.71875 -9.296875 L 0.0625 -9.296875 L 0.0625 -11.03125 L 9.421875 -11.03125 L 9.421875 -9.296875 L 5.765625 -9.296875 L 5.765625 0 L 3.71875 0 Z M 3.71875 -9.296875" transform="translate(157.746 259.99)"/></g></g></g><g fill="#404040"><g><g><path d="M 9.75 -1.71875 L 9.75 0 L 1.484375 0 L 1.484375 -11.03125 L 9.53125 -11.03125 L 9.53125 -9.3125 L 3.53125 -9.3125 L 3.53125 -6.4375 L 8.84375 -6.4375 L 8.84375 -4.75 L 3.53125 -4.75 L 3.53125 -1.71875 Z M 9.75 -1.71875" transform="translate(172.594 259.99)"/></g></g></g><g fill="#404040"><g><g><path d="M 9.015625 -5.640625 L 10.953125 -5.640625 L 10.953125 -1.25 C 10.378906 -0.789062 9.710938 -0.441406 8.953125 -0.203125 C 8.203125 0.0351562 7.425781 0.15625 6.625 0.15625 C 5.507812 0.15625 4.5 -0.0859375 3.59375 -0.578125 C 2.6875 -1.066406 1.972656 -1.738281 1.453125 -2.59375 C 0.941406 -3.457031 0.6875 -4.429688 0.6875 -5.515625 C 0.6875 -6.597656 0.941406 -7.566406 1.453125 -8.421875 C 1.972656 -9.285156 2.6875 -9.960938 3.59375 -10.453125 C 4.507812 -10.941406 5.53125 -11.1875 6.65625 -11.1875 C 7.582031 -11.1875 8.421875 -11.03125 9.171875 -10.71875 C 9.929688 -10.414062 10.570312 -9.972656 11.09375 -9.390625 L 9.796875 -8.125 C 8.953125 -8.96875 7.9375 -9.390625 6.75 -9.390625 C 5.976562 -9.390625 5.289062 -9.222656 4.6875 -8.890625 C 4.082031 -8.566406 3.609375 -8.109375 3.265625 -7.515625 C 2.921875 -6.929688 2.75 -6.265625 2.75 -5.515625 C 2.75 -4.773438 2.921875 -4.109375 3.265625 -3.515625 C 3.609375 -2.929688 4.082031 -2.472656 4.6875 -2.140625 C 5.289062 -1.804688 5.972656 -1.640625 6.734375 -1.640625 C 7.597656 -1.640625 8.359375 -1.828125 9.015625 -2.203125 Z M 9.015625 -5.640625" transform="translate(188.512 259.99)"/></g></g></g><g fill="#404040"><g><g><path d="M 8.6875 0 L 6.4375 -3.234375 C 6.34375 -3.222656 6.203125 -3.21875 6.015625 -3.21875 L 3.53125 -3.21875 L 3.53125 0 L 1.484375 0 L 1.484375 -11.03125 L 6.015625 -11.03125 C 6.972656 -11.03125 7.804688 -10.867188 8.515625 -10.546875 C 9.222656 -10.234375 9.765625 -9.78125 10.140625 -9.1875 C 10.515625 -8.601562 10.703125 -7.910156 10.703125 -7.109375 C 10.703125 -6.273438 10.5 -5.554688 10.09375 -4.953125 C 9.695312 -4.359375 9.117188 -3.914062 8.359375 -3.625 L 10.90625 0 Z M 8.640625 -7.109375 C 8.640625 -7.804688 8.410156 -8.34375 7.953125 -8.71875 C 7.492188 -9.101562 6.816406 -9.296875 5.921875 -9.296875 L 3.53125 -9.296875 L 3.53125 -4.890625 L 5.921875 -4.890625 C 6.816406 -4.890625 7.492188 -5.082031 7.953125 -5.46875 C 8.410156 -5.851562 8.640625 -6.398438 8.640625 -7.109375 Z M 8.640625 -7.109375" transform="translate(206.036 259.99)"/></g></g></g><g fill="#404040"><g><g><path d="M 8.625 -2.546875 L 3.125 -2.546875 L 2.03125 0 L -0.078125 0 L 4.875 -11.03125 L 6.90625 -11.03125 L 11.875 0 L 9.734375 0 Z M 7.953125 -4.15625 L 5.875 -8.984375 L 3.8125 -4.15625 Z M 7.953125 -4.15625" transform="translate(222.914 259.99)"/></g></g></g><g fill="#404040"><g><g><path d="M 3.71875 -9.296875 L 0.0625 -9.296875 L 0.0625 -11.03125 L 9.421875 -11.03125 L 9.421875 -9.296875 L 5.765625 -9.296875 L 5.765625 0 L 3.71875 0 Z M 3.71875 -9.296875" transform="translate(240.076 259.99)"/></g></g></g><g fill="#404040"><g><g><path d="M 1.484375 -11.03125 L 3.53125 -11.03125 L 3.53125 0 L 1.484375 0 Z M 1.484375 -11.03125" transform="translate(254.923 259.99)"/></g></g></g><g fill="#404040"><g><g><path d="M 6.625 0.15625 C 5.507812 0.15625 4.5 -0.0859375 3.59375 -0.578125 C 2.6875 -1.066406 1.972656 -1.742188 1.453125 -2.609375 C 0.941406 -3.472656 0.6875 -4.441406 0.6875 -5.515625 C 0.6875 -6.585938 0.941406 -7.554688 1.453125 -8.421875 C 1.972656 -9.285156 2.6875 -9.960938 3.59375 -10.453125 C 4.5 -10.941406 5.507812 -11.1875 6.625 -11.1875 C 7.75 -11.1875 8.765625 -10.941406 9.671875 -10.453125 C 10.578125 -9.960938 11.285156 -9.285156 11.796875 -8.421875 C 12.304688 -7.566406 12.5625 -6.597656 12.5625 -5.515625 C 12.5625 -4.429688 12.304688 -3.457031 11.796875 -2.59375 C 11.285156 -1.738281 10.578125 -1.066406 9.671875 -0.578125 C 8.765625 -0.0859375 7.75 0.15625 6.625 0.15625 Z M 6.625 -1.640625 C 7.363281 -1.640625 8.023438 -1.800781 8.609375 -2.125 C 9.203125 -2.457031 9.664062 -2.921875 10 -3.515625 C 10.332031 -4.109375 10.5 -4.773438 10.5 -5.515625 C 10.5 -6.242188 10.332031 -6.90625 10 -7.5 C 9.664062 -8.09375 9.203125 -8.554688 8.609375 -8.890625 C 8.023438 -9.222656 7.363281 -9.390625 6.625 -9.390625 C 5.894531 -9.390625 5.234375 -9.222656 4.640625 -8.890625 C 4.054688 -8.554688 3.59375 -8.09375 3.25 -7.5 C 2.914062 -6.90625 2.75 -6.242188 2.75 -5.515625 C 2.75 -4.773438 2.914062 -4.109375 3.25 -3.515625 C 3.59375 -2.921875 4.054688 -2.457031 4.640625 -2.125 C 5.234375 -1.800781 5.894531 -1.640625 6.625 -1.640625 Z M 6.625 -1.640625" transform="translate(265.316 259.99)"/></g></g></g><g fill="#404040"><g><g><path d="M 11.28125 -11.03125 L 11.28125 0 L 9.59375 0 L 3.515625 -7.46875 L 3.515625 0 L 1.484375 0 L 1.484375 -11.03125 L 3.171875 -11.03125 L 9.25 -3.5625 L 9.25 -11.03125 Z M 11.28125 -11.03125" transform="translate(283.942 259.99)"/></g></g></g><g fill="#404040"><g><g><path d="M 4.890625 0.15625 C 4.046875 0.15625 3.226562 0.0351562 2.4375 -0.203125 C 1.644531 -0.441406 1.015625 -0.765625 0.546875 -1.171875 L 1.265625 -2.75 C 1.710938 -2.394531 2.265625 -2.101562 2.921875 -1.875 C 3.578125 -1.65625 4.234375 -1.546875 4.890625 -1.546875 C 5.710938 -1.546875 6.328125 -1.675781 6.734375 -1.9375 C 7.140625 -2.195312 7.34375 -2.546875 7.34375 -2.984375 C 7.34375 -3.296875 7.226562 -3.550781 7 -3.75 C 6.769531 -3.957031 6.484375 -4.117188 6.140625 -4.234375 C 5.796875 -4.347656 5.320312 -4.476562 4.71875 -4.625 C 3.882812 -4.832031 3.207031 -5.035156 2.6875 -5.234375 C 2.164062 -5.429688 1.71875 -5.738281 1.34375 -6.15625 C 0.96875 -6.582031 0.78125 -7.160156 0.78125 -7.890625 C 0.78125 -8.492188 0.945312 -9.046875 1.28125 -9.546875 C 1.613281 -10.046875 2.113281 -10.441406 2.78125 -10.734375 C 3.445312 -11.035156 4.265625 -11.1875 5.234375 -11.1875 C 5.898438 -11.1875 6.554688 -11.097656 7.203125 -10.921875 C 7.859375 -10.753906 8.425781 -10.515625 8.90625 -10.203125 L 8.25 -8.609375 C 7.769531 -8.898438 7.265625 -9.117188 6.734375 -9.265625 C 6.210938 -9.410156 5.707031 -9.484375 5.21875 -9.484375 C 4.40625 -9.484375 3.800781 -9.34375 3.40625 -9.0625 C 3.007812 -8.789062 2.8125 -8.429688 2.8125 -7.984375 C 2.8125 -7.671875 2.925781 -7.414062 3.15625 -7.21875 C 3.382812 -7.019531 3.671875 -6.859375 4.015625 -6.734375 C 4.359375 -6.617188 4.832031 -6.488281 5.4375 -6.34375 C 6.25 -6.15625 6.914062 -5.957031 7.4375 -5.75 C 7.96875 -5.550781 8.421875 -5.238281 8.796875 -4.8125 C 9.171875 -4.394531 9.359375 -3.832031 9.359375 -3.125 C 9.359375 -2.507812 9.191406 -1.953125 8.859375 -1.453125 C 8.523438 -0.960938 8.019531 -0.570312 7.34375 -0.28125 C 6.675781 0.0078125 5.859375 0.15625 4.890625 0.15625 Z M 4.890625 0.15625" transform="translate(118.318 281.252)"/></g></g></g><g fill="#404040"><g><g><path d="M 6.625 0.15625 C 5.507812 0.15625 4.5 -0.0859375 3.59375 -0.578125 C 2.6875 -1.066406 1.972656 -1.742188 1.453125 -2.609375 C 0.941406 -3.472656 0.6875 -4.441406 0.6875 -5.515625 C 0.6875 -6.585938 0.941406 -7.554688 1.453125 -8.421875 C 1.972656 -9.285156 2.6875 -9.960938 3.59375 -10.453125 C 4.5 -10.941406 5.507812 -11.1875 6.625 -11.1875 C 7.75 -11.1875 8.765625 -10.941406 9.671875 -10.453125 C 10.578125 -9.960938 11.285156 -9.285156 11.796875 -8.421875 C 12.304688 -7.566406 12.5625 -6.597656 12.5625 -5.515625 C 12.5625 -4.429688 12.304688 -3.457031 11.796875 -2.59375 C 11.285156 -1.738281 10.578125 -1.066406 9.671875 -0.578125 C 8.765625 -0.0859375 7.75 0.15625 6.625 0.15625 Z M 6.625 -1.640625 C 7.363281 -1.640625 8.023438 -1.800781 8.609375 -2.125 C 9.203125 -2.457031 9.664062 -2.921875 10 -3.515625 C 10.332031 -4.109375 10.5 -4.773438 10.5 -5.515625 C 10.5 -6.242188 10.332031 -6.90625 10 -7.5 C 9.664062 -8.09375 9.203125 -8.554688 8.609375 -8.890625 C 8.023438 -9.222656 7.363281 -9.390625 6.625 -9.390625 C 5.894531 -9.390625 5.234375 -9.222656 4.640625 -8.890625 C 4.054688 -8.554688 3.59375 -8.09375 3.25 -7.5 C 2.914062 -6.90625 2.75 -6.242188 2.75 -5.515625 C 2.75 -4.773438 2.914062 -4.109375 3.25 -3.515625 C 3.59375 -2.921875 4.054688 -2.457031 4.640625 -2.125 C 5.234375 -1.800781 5.894531 -1.640625 6.625 -1.640625 Z M 6.625 -1.640625" transform="translate(133.59 281.252)"/></g></g></g><g fill="#404040"><g><g><path d="M 1.484375 -11.03125 L 3.53125 -11.03125 L 3.53125 -1.734375 L 9.296875 -1.734375 L 9.296875 0 L 1.484375 0 Z M 1.484375 -11.03125" transform="translate(152.217 281.252)"/></g></g></g><g fill="#404040"><g><g><path d="M 6.21875 0.15625 C 4.695312 0.15625 3.507812 -0.269531 2.65625 -1.125 C 1.8125 -1.976562 1.390625 -3.203125 1.390625 -4.796875 L 1.390625 -11.03125 L 3.4375 -11.03125 L 3.4375 -4.875 C 3.4375 -2.71875 4.367188 -1.640625 6.234375 -1.640625 C 8.097656 -1.640625 9.03125 -2.71875 9.03125 -4.875 L 9.03125 -11.03125 L 11.046875 -11.03125 L 11.046875 -4.796875 C 11.046875 -3.203125 10.617188 -1.976562 9.765625 -1.125 C 8.921875 -0.269531 7.738281 0.15625 6.21875 0.15625 Z M 6.21875 0.15625" transform="translate(167.017 281.252)"/></g></g></g><g fill="#404040"><g><g><path d="M 3.71875 -9.296875 L 0.0625 -9.296875 L 0.0625 -11.03125 L 9.421875 -11.03125 L 9.421875 -9.296875 L 5.765625 -9.296875 L 5.765625 0 L 3.71875 0 Z M 3.71875 -9.296875" transform="translate(184.808 281.252)"/></g></g></g><g fill="#404040"><g><g><path d="M 1.484375 -11.03125 L 3.53125 -11.03125 L 3.53125 0 L 1.484375 0 Z M 1.484375 -11.03125" transform="translate(199.656 281.252)"/></g></g></g><g fill="#404040"><g><g><path d="M 6.625 0.15625 C 5.507812 0.15625 4.5 -0.0859375 3.59375 -0.578125 C 2.6875 -1.066406 1.972656 -1.742188 1.453125 -2.609375 C 0.941406 -3.472656 0.6875 -4.441406 0.6875 -5.515625 C 0.6875 -6.585938 0.941406 -7.554688 1.453125 -8.421875 C 1.972656 -9.285156 2.6875 -9.960938 3.59375 -10.453125 C 4.5 -10.941406 5.507812 -11.1875 6.625 -11.1875 C 7.75 -11.1875 8.765625 -10.941406 9.671875 -10.453125 C 10.578125 -9.960938 11.285156 -9.285156 11.796875 -8.421875 C 12.304688 -7.566406 12.5625 -6.597656 12.5625 -5.515625 C 12.5625 -4.429688 12.304688 -3.457031 11.796875 -2.59375 C 11.285156 -1.738281 10.578125 -1.066406 9.671875 -0.578125 C 8.765625 -0.0859375 7.75 0.15625 6.625 0.15625 Z M 6.625 -1.640625 C 7.363281 -1.640625 8.023438 -1.800781 8.609375 -2.125 C 9.203125 -2.457031 9.664062 -2.921875 10 -3.515625 C 10.332031 -4.109375 10.5 -4.773438 10.5 -5.515625 C 10.5 -6.242188 10.332031 -6.90625 10 -7.5 C 9.664062 -8.09375 9.203125 -8.554688 8.609375 -8.890625 C 8.023438 -9.222656 7.363281 -9.390625 6.625 -9.390625 C 5.894531 -9.390625 5.234375 -9.222656 4.640625 -8.890625 C 4.054688 -8.554688 3.59375 -8.09375 3.25 -7.5 C 2.914062 -6.90625 2.75 -6.242188 2.75 -5.515625 C 2.75 -4.773438 2.914062 -4.109375 3.25 -3.515625 C 3.59375 -2.921875 4.054688 -2.457031 4.640625 -2.125 C 5.234375 -1.800781 5.894531 -1.640625 6.625 -1.640625 Z M 6.625 -1.640625" transform="translate(210.048 281.252)"/></g></g></g><g fill="#404040"><g><g><path d="M 11.28125 -11.03125 L 11.28125 0 L 9.59375 0 L 3.515625 -7.46875 L 3.515625 0 L 1.484375 0 L 1.484375 -11.03125 L 3.171875 -11.03125 L 9.25 -3.5625 L 9.25 -11.03125 Z M 11.28125 -11.03125" transform="translate(228.674 281.252)"/></g></g></g><g fill="#404040"><g><g><path d="M 4.890625 0.15625 C 4.046875 0.15625 3.226562 0.0351562 2.4375 -0.203125 C 1.644531 -0.441406 1.015625 -0.765625 0.546875 -1.171875 L 1.265625 -2.75 C 1.710938 -2.394531 2.265625 -2.101562 2.921875 -1.875 C 3.578125 -1.65625 4.234375 -1.546875 4.890625 -1.546875 C 5.710938 -1.546875 6.328125 -1.675781 6.734375 -1.9375 C 7.140625 -2.195312 7.34375 -2.546875 7.34375 -2.984375 C 7.34375 -3.296875 7.226562 -3.550781 7 -3.75 C 6.769531 -3.957031 6.484375 -4.117188 6.140625 -4.234375 C 5.796875 -4.347656 5.320312 -4.476562 4.71875 -4.625 C 3.882812 -4.832031 3.207031 -5.035156 2.6875 -5.234375 C 2.164062 -5.429688 1.71875 -5.738281 1.34375 -6.15625 C 0.96875 -6.582031 0.78125 -7.160156 0.78125 -7.890625 C 0.78125 -8.492188 0.945312 -9.046875 1.28125 -9.546875 C 1.613281 -10.046875 2.113281 -10.441406 2.78125 -10.734375 C 3.445312 -11.035156 4.265625 -11.1875 5.234375 -11.1875 C 5.898438 -11.1875 6.554688 -11.097656 7.203125 -10.921875 C 7.859375 -10.753906 8.425781 -10.515625 8.90625 -10.203125 L 8.25 -8.609375 C 7.769531 -8.898438 7.265625 -9.117188 6.734375 -9.265625 C 6.210938 -9.410156 5.707031 -9.484375 5.21875 -9.484375 C 4.40625 -9.484375 3.800781 -9.34375 3.40625 -9.0625 C 3.007812 -8.789062 2.8125 -8.429688 2.8125 -7.984375 C 2.8125 -7.671875 2.925781 -7.414062 3.15625 -7.21875 C 3.382812 -7.019531 3.671875 -6.859375 4.015625 -6.734375 C 4.359375 -6.617188 4.832031 -6.488281 5.4375 -6.34375 C 6.25 -6.15625 6.914062 -5.957031 7.4375 -5.75 C 7.96875 -5.550781 8.421875 -5.238281 8.796875 -4.8125 C 9.171875 -4.394531 9.359375 -3.832031 9.359375 -3.125 C 9.359375 -2.507812 9.191406 -1.953125 8.859375 -1.453125 C 8.523438 -0.960938 8.019531 -0.570312 7.34375 -0.28125 C 6.675781 0.0078125 5.859375 0.15625 4.890625 0.15625 Z M 4.890625 0.15625" transform="translate(246.796 281.252)"/></g></g></g><g clip-path="url(#a)"><path fill="#69CC26" d="M 161.210938 41.25 L 161.210938 42.441406 C 161.210938 54.996094 163.699219 67.296875 168.398438 78.671875 C 173.097656 90.050781 180.011719 100.511719 188.867188 109.386719 C 206.484375 127.054688 230.347656 137.015625 255.253906 137.117188 L 255.253906 83.746094 C 244.273438 85.460938 232.976562 85.234375 221.878906 82.964844 C 197.339844 77.949219 175.796875 63.363281 161.984375 42.417969 L 161.210938 41.25"/></g><g clip-path="url(#b)"><path fill="#068513" d="M 161.210938 37.386719 L 161.210938 41.25 L 161.984375 42.417969 C 168.890625 52.890625 177.730469 61.773438 187.910156 68.664062 C 196.59375 74.542969 206.253906 78.972656 216.523438 81.703125 L 216.523438 81.65625 C 216.523438 57.207031 196.753906 37.386719 172.371094 37.386719 L 161.210938 37.386719"/></g><g clip-path="url(#c)"><path fill="#00ADEE" d="M 213.554688 181.1875 L 213.554688 179.996094 C 213.554688 167.4375 211.066406 155.140625 206.363281 143.765625 C 201.664062 132.386719 194.75 121.925781 185.898438 113.046875 C 168.277344 95.382812 144.417969 85.421875 119.511719 85.320312 L 119.511719 138.6875 C 130.488281 136.976562 141.789062 137.203125 152.886719 139.472656 C 177.421875 144.488281 198.96875 159.070312 212.78125 180.015625 L 213.554688 181.1875"/></g><g clip-path="url(#d)"><path fill="#016080" d="M 213.554688 185.046875 L 213.554688 181.1875 L 212.78125 180.015625 C 205.875 169.542969 197.035156 160.664062 186.855469 153.769531 C 178.171875 147.890625 168.511719 143.460938 158.242188 140.734375 L 158.242188 140.777344 C 158.242188 165.226562 178.007812 185.046875 202.394531 185.046875 L 213.554688 185.046875"/></g></svg>